HIERARCHY
ROOT Hips
{
	OFFSET 0.00000 0.00000 0.00000
	CHANNELS 6 Xposition Yposition Zposition Zrotation Yrotation Xrotation 
	JOINT LHipJoint
	{
		OFFSET 0 0 0
		CHANNELS 3 Zrotation Yrotation Xrotation
		JOINT LeftUpLeg
		{
			OFFSET 1.53139 -1.83434 0.76626
			CHANNELS 3 Zrotation Yrotation Xrotation
			JOINT LeftLeg
			{
				OFFSET 2.56112 -7.03663 0.00000
				CHANNELS 3 Zrotation Yrotation Xrotation
				JOINT LeftFoot
				{
					OFFSET 2.59983 -7.14299 0.00000
					CHANNELS 3 Zrotation Yrotation Xrotation
					JOINT LeftToeBase
					{
						OFFSET 0.13742 -0.37757 2.00054
						CHANNELS 3 Zrotation Yrotation Xrotation
						End Site
						{
							OFFSET 0.00000 -0.00000 1.02897
						}
					}
				}
			}
		}
	}
	JOINT RHipJoint
	{
		OFFSET 0 0 0
		CHANNELS 3 Zrotation Yrotation Xrotation
		JOINT RightUpLeg
		{
			OFFSET -1.40122 -1.83435 0.76627
			CHANNELS 3 Zrotation Yrotation Xrotation
			JOINT RightLeg
			{
				OFFSET -2.54052 -6.98003 0.00000
				CHANNELS 3 Zrotation Yrotation Xrotation
				JOINT RightFoot
				{
					OFFSET -2.63179 -7.23079 0.00000
					CHANNELS 3 Zrotation Yrotation Xrotation
					JOINT RightToeBase
					{
						OFFSET -0.24131 -0.66299 2.03908
						CHANNELS 3 Zrotation Yrotation Xrotation
						End Site
						{
							OFFSET -0.00000 -0.00000 1.07391
						}
					}
				}
			}
		}
	}
	JOINT LowerBack
	{
		OFFSET 0 0 0
		CHANNELS 3 Zrotation Yrotation Xrotation
		JOINT Spine
		{
			OFFSET 0.01174 2.10302 -0.29778
			CHANNELS 3 Zrotation Yrotation Xrotation
			JOINT Spine1
			{
				OFFSET 0.00772 2.13227 -0.01247
				CHANNELS 3 Zrotation Yrotation Xrotation
				JOINT Neck
				{
					OFFSET 0 0 0
					CHANNELS 3 Zrotation Yrotation Xrotation
					JOINT Neck1
					{
						OFFSET -0.09219 1.60848 0.31481
						CHANNELS 3 Zrotation Yrotation Xrotation
						JOINT Head
						{
							OFFSET 0.13974 1.65456 -0.31134
							CHANNELS 3 Zrotation Yrotation Xrotation
							End Site
							{
								OFFSET 0.04742 1.69515 -0.14578
							}
						}
					}
				}
				JOINT LeftShoulder
				{
					OFFSET 0 0 0
					CHANNELS 3 Zrotation Yrotation Xrotation
					JOINT LeftArm
					{
						OFFSET 3.24909 1.02882 -0.23993
						CHANNELS 3 Zrotation Yrotation Xrotation
						JOINT LeftForeArm
						{
							OFFSET 5.32955 -0.00000 -0.00000
							CHANNELS 3 Zrotation Yrotation Xrotation
							JOINT LeftHand
							{
								OFFSET 3.69232 -0.00000 -0.00000
								CHANNELS 3 Zrotation Yrotation Xrotation
								JOINT LeftFingerBase
								{
									OFFSET 0 0 0
									CHANNELS 3 Zrotation Yrotation Xrotation
									JOINT LeftHandIndex1
									{
										OFFSET 0.53660 -0.00000 -0.00000
										CHANNELS 3 Zrotation Yrotation Xrotation
										End Site
										{
											OFFSET 0.43262 -0.00000 -0.00000
										}
									}
								}
								JOINT LThumb
								{
									OFFSET 0 0 0
									CHANNELS 3 Zrotation Yrotation Xrotation
									End Site
									{
										OFFSET 0.43922 -0.00000 0.43922
									}
								}
							}
						}
					}
				}
				JOINT RightShoulder
				{
					OFFSET 0 0 0
					CHANNELS 3 Zrotation Yrotation Xrotation
					JOINT RightArm
					{
						OFFSET -3.21387 0.93002 -0.34594
						CHANNELS 3 Zrotation Yrotation Xrotation
						JOINT RightForeArm
						{
							OFFSET -5.23431 -0.00000 0.00000
							CHANNELS 3 Zrotation Yrotation Xrotation
							JOINT RightHand
							{
								OFFSET -3.55301 -0.00000 -0.00000
								CHANNELS 3 Zrotation Yrotation Xrotation
								JOINT RightFingerBase
								{
									OFFSET 0 0 0
									CHANNELS 3 Zrotation Yrotation Xrotation
									JOINT RightHandIndex1
									{
										OFFSET -0.77252 -0.00000 -0.00000
										CHANNELS 3 Zrotation Yrotation Xrotation
										End Site
										{
											OFFSET -0.62283 -0.00000 -0.00000
										}
									}
								}
								JOINT RThumb
								{
									OFFSET 0 0 0
									CHANNELS 3 Zrotation Yrotation Xrotation
									End Site
									{
										OFFSET -0.63234 -0.00000 0.63234
									}
								}
							}
						}
					}
				}
			}
		}
	}
}
MOTION
Frames: 16
Frame Time: .0083333
14.441 17.6943 -16.5393 0 0 0 0 0 0 -21 0 0 0 0 0 0 0 0 0 0 0 0 0 0 21 0 0 0 0 0 0 0 0 0 0 0 0 0 0 0 0 0 0 0 0 0 0 -16 0 0 21 0 0 11 0 0 0 -8 0 0 0 0 0 0 0 0 0 0 0 0 0 0 0 0 0 0 0 0 8 0 0 0 0 0 0 0 0 0 0 0 0 0 0 0 0 0
14.4410 17.6943 -16.5393 46.1224 -84.6866 -46.8627 0.0000 0.0000 0.0000 -21.3318 -9.9282 -7.7125 2.0422 8.9535 25.6500 0.1300 -11.0223 -9.5623 0.0338 -1.1872 -3.2640 0.0000 0.0000 0.0000 20.2758 0.8734 -14.4277 -6.0756 -14.5012 45.2845 -0.3420 20.5813 -17.1058 -0.7415 5.5010 -15.3432 -3.4737 1.7839 11.7128 -0.4015 1.8368 2.1237 1.2578 0.9192 -4.4372 -10.7516 -0.4346 -13.8323 5.1976 -0.9489 39.5407 3.9358 -1.8240 16.6680 -0.0000 0.0000 0.0000 -82.1394 -1.8377 20.4103 29.3995 -40.3731 -11.0185 -0.0000 0.0000 -4.2314 22.5939 23.2664 9.3346 -7.1250 0.0000 -0.0000 -6.9945 54.8161 -1.6926 -0.0000 0.0000 0.0000 89.1073 -4.3908 5.1254 -19.5999 30.1573 -5.3289 0.0000 0.0000 7.8568 -15.0196 9.9217 -2.6470 7.1250 -0.0000 -0.0000 8.5169 -19.7710 5.1911
14.4304 17.6904 -16.4707 49.4963 -84.6225 -50.1627 0.0000 0.0000 0.0000 -21.7805 -9.2753 -7.9478 2.0398 8.9485 25.6344 0.1060 -11.6198 -9.5930 0.0621 -1.6079 -4.4231 0.0000 0.0000 0.0000 20.7083 0.8484 -14.3017 -5.9256 -14.3558 44.6824 -0.1269 20.6940 -15.5667 -0.1430 2.4369 -6.7147 -3.5504 1.8707 11.4962 -0.6622 1.9387 2.0680 1.0177 0.9693 -4.3744 -10.9566 -0.4909 -13.6548 5.3172 -1.0334 39.4309 4.0059 -1.8696 16.5774 0.0000 -0.0000 0.0000 -81.7999 -1.8635 20.4201 29.6064 -40.5536 -11.1528 -0.0000 0.0000 -4.7367 22.4002 22.7531 9.0575 -7.1250 0.0000 -0.0000 -7.0067 54.2442 -1.5978 0.0000 -0.0000 0.0000 89.4581 -4.4480 5.3430 -19.5937 30.1497 -5.3258 0.0000 0.0000 7.8497 -14.8899 9.9217 -2.6231 7.1250 -0.0000 -0.0000 8.6090 -19.7782 5.2470
14.4198 17.6854 -16.4002 53.5139 -84.5633 -54.0928 0.0000 0.0000 0.0000 -22.2623 -8.7456 -8.0758 2.0180 8.9035 25.4938 0.0722 -12.1724 -9.4958 0.0674 -1.6749 -4.6079 0.0000 0.0000 0.0000 20.9977 0.9553 -14.1200 -5.8101 -14.2417 44.2146 0.1187 20.6166 -13.5422 -0.0496 -1.4371 3.9523 -3.6407 1.9602 11.2636 -0.8422 2.0484 2.0200 0.8696 1.0237 -4.2976 -9.8814 -0.1718 -13.5864 4.7370 -0.6775 39.5530 3.6131 -1.6477 16.5687 -0.0000 0.0000 0.0000 -81.6791 -1.9688 20.2951 29.7550 -40.6825 -11.2496 -0.0000 0.0000 -5.2172 22.8345 22.8750 9.2957 -7.1250 0.0000 -0.0000 -6.6008 54.4563 -1.5388 -0.0000 0.0000 0.0000 89.5951 -4.4777 5.7116 -19.5629 30.1121 -5.3103 0.0000 0.0000 7.7446 -14.8671 9.8938 -2.6116 7.1250 -0.0000 -0.0000 8.6258 -19.8078 5.2518
14.4119 17.6776 -16.3277 57.3783 -84.4448 -57.9411 0.0000 0.0000 0.0000 -22.7734 -8.3632 -8.0556 1.9918 8.8490 25.3242 0.0345 -12.6235 -9.3065 0.0385 -1.2669 -3.4834 0.0000 0.0000 0.0000 21.1308 1.0329 -13.7703 -5.6995 -14.1307 43.7634 -0.1832 16.6565 -13.4548 -0.3294 -3.6885 10.2020 -3.6468 2.0723 11.1230 -1.0122 2.1939 2.0082 0.6783 1.0937 -4.2321 -10.5872 -0.1629 -13.7841 5.1387 -0.5735 39.7258 3.9497 -1.6646 16.7061 0.0000 -0.0000 0.0000 -81.7502 -2.0702 20.1334 29.9555 -40.8552 -11.3805 -0.0000 0.0000 -5.2724 22.7764 23.2557 9.4130 -7.1250 0.0000 -0.0000 -6.8002 54.8414 -1.6494 0.0000 -0.0000 0.0000 89.7216 -4.4959 5.9717 -19.5623 30.1113 -5.3100 0.0000 0.0000 7.7402 -15.1567 9.8025 -2.6405 7.1250 -0.0000 -0.0000 8.4222 -19.8852 5.1103
14.4079 17.6740 -16.2512 60.3875 -84.2655 -60.8650 0.0000 0.0000 0.0000 -23.2611 -7.8065 -8.2057 1.9573 8.7766 25.0988 -0.0242 -13.2309 -8.9777 0.0156 -0.8054 -2.2135 0.0000 0.0000 0.0000 21.1099 1.2372 -13.4593 -5.6011 -14.0303 43.3588 -0.5727 12.5456 -15.0387 -0.4425 -4.2681 11.8321 -3.5023 2.1500 11.0337 -1.2568 2.3047 1.9099 0.3268 1.1470 -4.2743 -10.6316 -0.1162 -13.5397 5.1217 -0.5076 39.6321 3.9536 -1.6430 16.5860 -0.0000 -0.0000 0.0000 -81.6693 -2.0520 20.0590 30.1640 -41.0335 -11.5171 -0.0000 0.0000 -5.2212 22.2610 23.3078 9.1998 -7.1250 0.0000 -0.0000 -7.3567 54.7926 -1.7767 -0.0000 -0.0000 0.0000 89.9395 -4.5496 6.0818 -19.5260 30.0670 -5.2918 0.0000 0.0000 7.7890 -15.1268 9.7860 -2.6307 7.1250 -0.0000 -0.0000 8.4437 -19.9037 5.1201
14.4029 17.6745 -16.1788 63.7547 -83.9522 -63.9690 0.0000 0.0000 0.0000 -23.8586 -7.4736 -8.4934 1.9273 8.7130 24.9015 -0.0783 -13.8005 -8.7106 0.0007 -0.1763 -0.4843 0.0000 0.0000 0.0000 20.8626 1.7244 -13.2743 -5.4978 -13.9233 42.9311 -0.9602 8.8777 -17.6448 -0.1655 -2.6212 7.2258 -3.6736 2.1620 10.7819 -1.4602 2.3018 1.7388 0.2161 1.1502 -4.3122 -10.4410 0.0254 -13.2785 4.8679 -0.2902 39.5909 3.8345 -1.5608 16.4722 -0.0000 0.0000 0.0000 -81.5417 -1.8388 19.9488 30.3830 -41.2195 -11.6612 -0.0000 0.0000 -5.3794 22.4350 23.3045 9.2770 -7.1250 0.0000 -0.0000 -7.1742 54.8239 -1.7378 -0.0000 0.0000 0.0000 89.9913 -4.6021 6.4659 -19.4593 29.9854 -5.2584 0.0000 0.0000 7.8387 -14.8538 9.7511 -2.5720 7.1250 -0.0000 -0.0000 8.6386 -19.9543 5.2311
14.3968 17.6744 -16.1134 68.0471 -83.4997 -67.8967 0.0000 0.0000 0.0000 -24.5913 -7.1470 -8.9348 1.9044 8.6640 24.7497 -0.1272 -14.4213 -8.5814 0.0005 0.1508 0.4142 0.0000 0.0000 0.0000 20.3711 2.4453 -13.1785 -5.3906 -13.8106 42.4841 -1.1608 6.5524 -19.2437 -0.0225 -0.9678 2.6601 -4.0938 2.2354 10.4094 -1.6844 2.3573 1.5711 0.2191 1.1847 -4.2904 -10.5251 0.1413 -13.3296 4.8432 -0.0878 39.8116 3.8805 -1.5089 16.5809 -0.0000 -0.0000 0.0000 -81.5284 -1.6723 19.8077 30.5461 -41.3569 -11.7688 -0.0000 0.0000 -5.2813 22.9157 23.1102 9.4210 -7.1250 0.0000 -0.0000 -6.6015 54.7178 -1.5810 -0.0000 -0.0000 0.0000 90.0549 -4.6150 6.7407 -19.3684 29.8738 -5.2131 0.0000 0.0000 8.0389 -14.9934 9.7301 -2.5917 7.1250 -0.0000 -0.0000 8.5398 -19.9682 5.1672
14.3951 17.6727 -16.0392 70.2431 -83.2953 -69.8455 0.0000 0.0000 0.0000 -25.0758 -6.5404 -9.3988 1.8880 8.6287 24.6406 -0.0998 -14.8330 -9.2541 0.0431 -1.3406 -3.6864 0.0000 0.0000 0.0000 20.0888 2.9107 -13.0401 -5.2813 -13.6937 42.0242 -1.1772 6.0517 -19.3951 -0.0307 -1.1319 3.1119 -3.9584 2.2958 10.1512 -1.8408 2.4589 1.4824 -0.0260 1.2330 -4.2307 -10.7529 0.1851 -13.6159 4.7750 0.1046 40.1399 3.9400 -1.4926 16.8141 -0.0000 0.0000 0.0000 -81.6898 -1.7378 19.5862 30.5965 -41.3992 -11.8021 -0.0000 0.0000 -4.9884 22.7049 22.8167 9.2161 -7.1250 0.0000 -0.0000 -6.7143 54.3700 -1.5513 -0.0000 0.0000 0.0000 90.0793 -4.4600 6.7220 -19.1860 29.6491 -5.1225 0.0000 0.0000 8.3488 -15.1114 9.8868 -2.6546 7.1250 -0.0000 -0.0000 8.4525 -19.8016 5.1451
14.3967 17.6647 -15.9556 71.0252 -83.2703 -70.5742 0.0000 0.0000 0.0000 -25.4729 -5.6571 -9.7504 1.8801 8.6117 24.5880 0.0332 -14.8050 -10.7660 0.4339 -4.2270 -11.7161 0.0000 0.0000 0.0000 19.9083 3.0486 -12.7656 -5.1777 -13.5811 41.5847 -1.1707 6.1293 -19.3374 -0.0067 -0.5291 1.4539 -3.3732 2.3693 10.1284 -1.9385 2.6185 1.4734 -0.4759 1.3031 -4.2012 -10.9249 0.1675 -13.7923 4.6312 0.2303 40.2045 3.9331 -1.4859 16.8857 -0.0000 -0.0000 0.0000 -81.6866 -1.8304 19.6444 30.6352 -41.4317 -11.8277 -0.0000 0.0000 -4.7340 22.6448 22.7203 9.1533 -7.1250 0.0000 -0.0000 -6.7420 54.2579 -1.5392 -0.0000 -0.0000 0.0000 90.0114 -4.2732 6.6288 -19.0513 29.4824 -5.0561 0.0000 0.0000 8.4328 -14.8868 10.0597 -2.6586 7.1250 -0.0000 -0.0000 8.6081 -19.6375 5.2739
14.3974 17.6539 -15.8727 72.0272 -83.1062 -71.6295 0.0000 0.0000 0.0000 -26.0126 -5.0843 -9.8567 1.8836 8.6192 24.6112 0.1538 -14.6717 -11.9650 0.8808 -5.9828 -16.7345 0.0000 0.0000 0.0000 19.4774 3.2825 -12.2815 -5.0784 -13.4716 41.1605 -1.2465 5.8225 -19.9839 -0.1052 -2.0915 5.7585 -2.9855 2.4418 10.2501 -2.0331 2.7464 1.4449 -0.8149 1.3606 -4.2780 -10.7494 0.2155 -13.6351 4.2453 0.4003 40.0402 3.7464 -1.4283 16.7426 -0.0000 0.0000 0.0000 -81.5720 -1.5436 19.7551 30.8634 -41.6220 -11.9790 -0.0000 0.0000 -4.4949 22.3248 22.3108 8.8605 -7.1250 0.0000 -0.0000 -6.9267 53.7695 -1.4990 -0.0000 0.0000 0.0000 89.8088 -4.3137 6.9228 -19.0385 29.4665 -5.0498 0.0000 0.0000 8.2385 -14.6807 9.9580 -2.5940 7.1250 -0.0000 -0.0000 8.7566 -19.7526 5.3442
14.3968 17.6490 -15.7891 73.6447 -82.9190 -73.2233 0.0000 0.0000 0.0000 -26.4934 -4.8070 -9.9532 1.8965 8.6470 24.6972 0.1582 -15.0357 -12.2298 0.8100 -5.7434 -16.0418 0.0000 0.0000 0.0000 18.9444 3.7048 -11.8159 -4.9799 -13.3611 40.7356 -1.3589 5.2588 -20.9374 -0.0514 -1.4633 4.0246 -2.7676 2.4558 10.2756 -2.0627 2.7868 1.3809 -0.9763 1.3785 -4.3474 -11.6860 0.1542 -13.8424 4.3004 0.6319 40.0751 3.9828 -1.4680 16.7982 0.0000 -0.0000 0.0000 -82.0439 -1.3050 19.2198 31.0076 -41.7416 -12.0749 -0.0000 0.0000 -3.6569 21.5745 22.1319 8.4729 -7.1250 0.0000 -0.0000 -7.6308 53.4414 -1.5914 0.0000 -0.0000 0.0000 89.4766 -4.3879 7.3882 -19.0233 29.4476 -5.0423 0.0000 0.0000 8.1971 -14.4433 9.8433 -2.5212 7.1250 -0.0000 -0.0000 8.9279 -19.8822 5.4251
14.3978 17.6451 -15.7047 75.1859 -83.0006 -74.8090 0.0000 0.0000 0.0000 -26.6588 -4.4417 -10.0107 1.9176 8.6923 24.8375 0.1651 -15.3714 -12.5017 0.7060 -5.3704 -14.9681 0.0000 0.0000 0.0000 18.6934 4.2148 -11.2580 -4.8832 -13.2511 40.3158 -1.4137 5.1215 -21.3843 -0.0005 -0.1478 0.4062 -2.3245 2.4467 10.3623 -2.0562 2.8224 1.3279 -1.2280 1.3906 -4.4298 -10.4487 0.4990 -13.8711 3.5155 1.0536 40.3627 3.4852 -1.2359 16.9240 0.0000 0.0000 0.0000 -82.7434 -1.2195 18.4799 30.9924 -41.7289 -12.0648 -0.0000 0.0000 -2.4725 21.6025 22.4757 8.6081 -7.1250 0.0000 -0.0000 -7.7262 53.8027 -1.6798 0.0000 0.0000 0.0000 89.2670 -4.4041 7.6295 -18.9539 29.3613 -5.0082 0.0000 0.0000 8.4547 -14.1905 9.9451 -2.5006 7.1250 -0.0000 -0.0000 9.1045 -19.7922 5.5537
14.4006 17.6400 -15.6224 75.4315 -83.2647 -75.1307 0.0000 0.0000 0.0000 -26.6222 -4.0708 -10.1260 1.9537 8.7689 25.0751 0.2549 -15.3710 -13.3691 0.9527 -6.2159 -17.4121 0.0000 0.0000 0.0000 18.6224 4.4719 -10.8074 -4.7899 -13.1433 39.9071 -1.4195 5.6914 -21.3796 -0.0042 -0.4170 1.1459 -1.6298 2.3818 10.4657 -2.1045 2.8106 1.2916 -1.6713 1.3739 -4.4889 -10.5235 0.5559 -13.9673 3.3176 1.2721 40.3150 3.4458 -1.1809 16.9061 0.0000 -0.0000 0.0000 -82.9032 -1.0439 18.0365 30.9586 -41.7010 -12.0423 -0.0000 0.0000 -1.8437 21.8204 22.5044 8.7127 -7.1250 0.0000 -0.0000 -7.5134 53.8740 -1.6463 0.0000 -0.0000 0.0000 89.2483 -4.4257 8.0317 -18.9286 29.3299 -4.9958 0.0000 0.0000 8.3643 -14.2300 9.9437 -2.5074 7.1250 -0.0000 -0.0000 9.0767 -19.7916 5.5364
14.4054 17.6369 -15.5460 74.3707 -83.3364 -74.0213 0.0000 0.0000 0.0000 -26.7248 -3.6672 -10.4929 2.0018 8.8699 25.3891 0.3634 -15.3791 -14.3731 1.4165 -7.5271 -21.2867 0.0000 0.0000 0.0000 18.3199 4.3934 -10.6725 -4.7130 -13.0531 39.5676 -1.4257 6.4539 -21.3811 -0.0825 -1.8525 5.0983 -1.1770 2.3000 10.4844 -2.0647 2.7579 1.2396 -1.8788 1.3418 -4.5347 -10.9698 0.5724 -14.1126 3.4319 1.4255 40.3672 3.6077 -1.1731 16.9550 0.0000 0.0000 0.0000 -83.2305 -0.8086 17.5997 30.9709 -41.7112 -12.0505 -0.0000 0.0000 -1.2979 21.9922 21.9966 8.6019 -7.1250 0.0000 -0.0000 -7.1574 53.3796 -1.4810 0.0000 0.0000 0.0000 88.9699 -4.4722 8.5222 -18.9660 29.3764 -5.0141 0.0000 0.0000 8.0825 -14.3018 9.8481 -2.4967 7.1250 -0.0000 -0.0000 9.0282 -19.8849 5.4870
14.4154 17.6352 -15.4723 72.9337 -83.3485 -72.4641 0.0000 0.0000 0.0000 -26.7749 -3.3197 -10.9675 2.0530 8.9757 25.7193 0.3706 -15.8349 -14.6728 1.4826 -7.6930 -21.7855 0.0000 0.0000 0.0000 17.9780 4.2797 -10.6974 -4.6532 -12.9823 39.3021 -1.4569 7.1561 -21.5977 -0.0850 -1.8800 5.1742 -0.8877 2.2707 10.5508 -1.8923 2.7633 1.1379 -1.8685 1.3423 -4.6725 -11.4481 0.5445 -14.2029 3.4904 1.5359 40.4167 3.7418 -1.1951 16.9953 0.0000 -0.0000 0.0000 -83.9392 -0.5930 17.1313 30.9432 -41.6883 -12.0320 -0.0000 0.0000 -0.4827 22.3262 21.6081 8.5996 -7.1250 0.0000 -0.0000 -6.6853 53.0373 -1.3266 0.0000 -0.0000 0.0000 88.4443 -4.5506 8.8407 -19.0147 29.4369 -5.0381 0.0000 0.0000 7.7593 -14.6581 10.1967 -2.6511 7.1250 -0.0000 -0.0000 8.7670 -19.5106 5.3987
